<svg width="260" height="75" viewBox="0 0 260 75" fill="none" xmlns="http://www.w3.org/2000/svg">
<g filter="url(#filter0_i_2_9)">
<path d="M9.91477 73H0.681818L27.3864 0.272725H36.4773L63.1818 73H53.9489L32.2159 11.7784H31.6477L9.91477 73ZM13.3239 44.5909H50.5398V52.4034H13.3239V44.5909ZM73.3736 73V18.4545H81.4702V26.9773H82.1804C83.3168 24.0653 85.1515 21.8045 87.6847 20.1946C90.2178 18.5611 93.2599 17.7443 96.8111 17.7443C100.41 17.7443 103.404 18.5611 105.795 20.1946C108.21 21.8045 110.092 24.0653 111.442 26.9773H112.01C113.407 24.16 115.502 21.9228 118.295 20.2656C121.089 18.5848 124.439 17.7443 128.345 17.7443C133.222 17.7443 137.211 19.2713 140.312 22.3253C143.414 25.3556 144.964 30.0786 144.964 36.4943V73H136.584V36.4943C136.584 32.4697 135.483 29.5933 133.281 27.8651C131.08 26.1368 128.487 25.2727 125.504 25.2727C121.669 25.2727 118.698 26.4328 116.591 28.7528C114.484 31.0492 113.43 33.9612 113.43 37.4886V73H104.908V35.642C104.908 32.5407 103.902 30.0431 101.889 28.1491C99.8769 26.2315 97.2846 25.2727 94.1122 25.2727C91.9342 25.2727 89.8982 25.8527 88.0043 27.0128C86.134 28.1728 84.6188 29.7827 83.4588 31.8423C82.3224 33.8783 81.7543 36.2339 81.7543 38.9091V73H73.3736ZM176.339 74.2784C172.882 74.2784 169.746 73.6274 166.928 72.3253C164.111 70.9995 161.874 69.0938 160.217 66.608C158.559 64.0985 157.731 61.0682 157.731 57.517C157.731 54.392 158.346 51.8589 159.577 49.9176C160.808 47.9527 162.454 46.4138 164.513 45.3011C166.573 44.1884 168.846 43.3598 171.332 42.8153C173.841 42.2472 176.362 41.7973 178.896 41.4659C182.21 41.0398 184.897 40.7202 186.957 40.5071C189.04 40.2704 190.555 39.8797 191.502 39.3352C192.473 38.7907 192.958 37.8437 192.958 36.4943V36.2102C192.958 32.7064 191.999 29.9839 190.082 28.0426C188.188 26.1013 185.311 25.1307 181.452 25.1307C177.451 25.1307 174.315 26.0066 172.042 27.7585C169.769 29.5104 168.171 31.3807 167.248 33.3693L159.293 30.5284C160.714 27.214 162.608 24.6335 164.975 22.7869C167.366 20.9167 169.97 19.6146 172.788 18.8807C175.629 18.1231 178.422 17.7443 181.168 17.7443C182.92 17.7443 184.933 17.9574 187.205 18.3835C189.502 18.786 191.715 19.6264 193.846 20.9048C196 22.1832 197.788 24.1127 199.208 26.6932C200.629 29.2737 201.339 32.7301 201.339 37.0625V73H192.958V65.6136H192.532C191.964 66.7973 191.017 68.0639 189.691 69.4134C188.365 70.7628 186.602 71.911 184.4 72.858C182.198 73.8049 179.511 74.2784 176.339 74.2784ZM177.617 66.75C180.932 66.75 183.725 66.099 185.998 64.7969C188.294 63.4948 190.022 61.8139 191.183 59.7543C192.366 57.6946 192.958 55.5284 192.958 53.2557V45.5852C192.603 46.0114 191.822 46.402 190.614 46.7571C189.431 47.0885 188.058 47.3845 186.495 47.6449C184.956 47.8816 183.453 48.0947 181.985 48.2841C180.541 48.4498 179.369 48.5919 178.469 48.7102C176.291 48.9943 174.255 49.456 172.362 50.0952C170.491 50.7107 168.976 51.6458 167.816 52.9006C166.68 54.1316 166.112 55.8125 166.112 57.9432C166.112 60.8551 167.189 63.0568 169.343 64.5483C171.521 66.0161 174.279 66.75 177.617 66.75ZM225.016 40.1875V73H216.635V18.4545H224.732V26.9773H225.442C226.721 24.2074 228.662 21.982 231.266 20.3011C233.87 18.5966 237.232 17.7443 241.351 17.7443C245.044 17.7443 248.276 18.5019 251.046 20.017C253.816 21.5085 255.97 23.7812 257.509 26.8352C259.048 29.8655 259.817 33.7008 259.817 38.3409V73H251.436V38.9091C251.436 34.6241 250.324 31.286 248.098 28.8949C245.873 26.4801 242.819 25.2727 238.936 25.2727C236.261 25.2727 233.87 25.8527 231.763 27.0128C229.68 28.1728 228.034 29.8655 226.827 32.0909C225.62 34.3163 225.016 37.0152 225.016 40.1875Z" fill="white"/>
</g>
<defs>
<filter id="filter0_i_2_9" x="0.681824" y="0.27272" width="259.135" height="78.0057" filterUnits="userSpaceOnUse" color-interpolation-filters="sRGB">
<feFlood flood-opacity="0" result="BackgroundImageFix"/>
<feBlend mode="normal" in="SourceGraphic" in2="BackgroundImageFix" result="shape"/>
<feColorMatrix in="SourceAlpha" type="matrix" values="0 0 0 0 0 0 0 0 0 0 0 0 0 0 0 0 0 0 127 0" result="hardAlpha"/>
<feOffset dy="4"/>
<feGaussianBlur stdDeviation="2"/>
<feComposite in2="hardAlpha" operator="arithmetic" k2="-1" k3="1"/>
<feColorMatrix type="matrix" values="0 0 0 0 0 0 0 0 0 0 0 0 0 0 0 0 0 0 0.25 0"/>
<feBlend mode="normal" in2="shape" result="effect1_innerShadow_2_9"/>
</filter>
</defs>
</svg>
